<svg width="143" height="24" viewBox="0 0 143 24" fill="none" xmlns="http://www.w3.org/2000/svg">
<path d="M15.03 6.96C14.57 6.4 14 5.97 13.32 5.67C12.66 5.37 11.89 5.22 11.01 5.22C10.13 5.22 9.31 5.39 8.55 5.73C7.81 6.07 7.16 6.55 6.6 7.17C6.06 7.77 5.63 8.49 5.31 9.33C5.01 10.17 4.86 11.08 4.86 12.06C4.86 13.06 5.01 13.98 5.31 14.82C5.63 15.64 6.06 16.36 6.6 16.98C7.14 17.58 7.77 18.05 8.49 18.39C9.23 18.73 10.02 18.9 10.86 18.9C11.82 18.9 12.67 18.7 13.41 18.3C14.15 17.9 14.76 17.34 15.24 16.62L19.14 19.53C18.24 20.79 17.1 21.72 15.72 22.32C14.34 22.92 12.92 23.22 11.46 23.22C9.8 23.22 8.27 22.96 6.87 22.44C5.47 21.92 4.26 21.18 3.24 20.22C2.22 19.24 1.42 18.06 0.84 16.68C0.28 15.3 0 13.76 0 12.06C0 10.36 0.28 8.82 0.84 7.44C1.42 6.06 2.22 4.89 3.24 3.93C4.26 2.95 5.47 2.2 6.87 1.68C8.27 1.16 9.8 0.900001 11.46 0.900001C12.06 0.900001 12.68 0.960001 13.32 1.08C13.98 1.18 14.62 1.35 15.24 1.59C15.88 1.83 16.49 2.15 17.07 2.55C17.65 2.95 18.17 3.44 18.63 4.02L15.03 6.96Z" fill="white"/>
<path d="M35.1471 22.68H30.8271V20.7H30.7671C30.6071 20.98 30.3971 21.26 30.1371 21.54C29.8971 21.82 29.5971 22.07 29.2371 22.29C28.8771 22.51 28.4671 22.69 28.0071 22.83C27.5471 22.97 27.0471 23.04 26.5071 23.04C25.3671 23.04 24.4371 22.87 23.7171 22.53C23.0171 22.17 22.4671 21.68 22.0671 21.06C21.6871 20.44 21.4271 19.71 21.2871 18.87C21.1671 18.03 21.1071 17.12 21.1071 16.14V8.1H25.6071V15.24C25.6071 15.66 25.6171 16.1 25.6371 16.56C25.6771 17 25.7671 17.41 25.9071 17.79C26.0671 18.17 26.2971 18.48 26.5971 18.72C26.9171 18.96 27.3671 19.08 27.9471 19.08C28.5271 19.08 28.9971 18.98 29.3571 18.78C29.7171 18.56 29.9871 18.28 30.1671 17.94C30.3671 17.58 30.4971 17.18 30.5571 16.74C30.6171 16.3 30.6471 15.84 30.6471 15.36V8.1H35.1471V22.68Z" fill="white"/>
<path d="M38.7537 0H43.2537V9.66H43.3137C43.8337 8.96 44.4937 8.47 45.2937 8.19C46.1137 7.89 46.9937 7.74 47.9337 7.74C48.9737 7.74 49.9037 7.96 50.7237 8.4C51.5437 8.82 52.2337 9.39 52.7937 10.11C53.3737 10.83 53.8137 11.66 54.1137 12.6C54.4337 13.52 54.5937 14.49 54.5937 15.51C54.5937 16.61 54.4237 17.62 54.0837 18.54C53.7437 19.46 53.2537 20.26 52.6137 20.94C51.9937 21.6 51.2437 22.12 50.3637 22.5C49.4837 22.86 48.5037 23.04 47.4237 23.04C46.9037 23.04 46.4137 22.97 45.9537 22.83C45.4937 22.69 45.0637 22.51 44.6637 22.29C44.2837 22.07 43.9437 21.83 43.6437 21.57C43.3637 21.29 43.1337 21.02 42.9537 20.76H42.8937V22.68H38.7537V0ZM42.8937 15.39C42.8937 16.49 43.2037 17.38 43.8237 18.06C44.4637 18.74 45.3537 19.08 46.4937 19.08C47.6337 19.08 48.5137 18.74 49.1337 18.06C49.7737 17.38 50.0937 16.49 50.0937 15.39C50.0937 14.29 49.7737 13.4 49.1337 12.72C48.5137 12.04 47.6337 11.7 46.4937 11.7C45.3537 11.7 44.4637 12.04 43.8237 12.72C43.2037 13.4 42.8937 14.29 42.8937 15.39Z" fill="white"/>
<path d="M71.0302 20.16C70.3102 21.08 69.4002 21.79 68.3002 22.29C67.2002 22.79 66.0602 23.04 64.8802 23.04C63.7602 23.04 62.7002 22.86 61.7002 22.5C60.7202 22.14 59.8602 21.63 59.1202 20.97C58.4002 20.29 57.8302 19.48 57.4102 18.54C56.9902 17.6 56.7802 16.55 56.7802 15.39C56.7802 14.23 56.9902 13.18 57.4102 12.24C57.8302 11.3 58.4002 10.5 59.1202 9.84C59.8602 9.16 60.7202 8.64 61.7002 8.28C62.7002 7.92 63.7602 7.74 64.8802 7.74C65.9202 7.74 66.8602 7.92 67.7002 8.28C68.5602 8.64 69.2802 9.16 69.8602 9.84C70.4602 10.5 70.9202 11.3 71.2402 12.24C71.5602 13.18 71.7202 14.23 71.7202 15.39V16.8H61.2802C61.4602 17.66 61.8502 18.35 62.4502 18.87C63.0502 19.37 63.7902 19.62 64.6702 19.62C65.4102 19.62 66.0302 19.46 66.5302 19.14C67.0502 18.8 67.5002 18.37 67.8802 17.85L71.0302 20.16ZM67.2202 13.74C67.2402 12.98 66.9902 12.33 66.4702 11.79C65.9502 11.25 65.2802 10.98 64.4602 10.98C63.9602 10.98 63.5202 11.06 63.1402 11.22C62.7602 11.38 62.4302 11.59 62.1502 11.85C61.8902 12.09 61.6802 12.38 61.5202 12.72C61.3802 13.04 61.3002 13.38 61.2802 13.74H67.2202Z" fill="white"/>
<path d="M82.7667 10.62H78.6267V17.64C78.6267 18.1 78.6367 18.53 78.6567 18.93C78.6767 19.31 78.7567 19.65 78.8967 19.95C79.0367 20.23 79.2467 20.46 79.5267 20.64C79.8067 20.8 80.2067 20.88 80.7267 20.88C81.0667 20.88 81.4167 20.84 81.7767 20.76C82.1367 20.68 82.4767 20.56 82.7967 20.4L82.8867 22.53C82.4867 22.71 82.0367 22.84 81.5367 22.92C81.0567 23 80.5967 23.04 80.1567 23.04C79.3167 23.04 78.6467 22.93 78.1467 22.71C77.6467 22.49 77.2567 22.18 76.9767 21.78C76.6967 21.38 76.5067 20.89 76.4067 20.31C76.3267 19.71 76.2867 19.05 76.2867 18.33V10.62H73.2267V8.64H76.2867V4.65H78.6267V8.64H82.7667V10.62Z" fill="white"/>
<path d="M85.6336 11.97C85.6336 11.33 85.6136 10.73 85.5736 10.17C85.5336 9.61 85.5136 9.1 85.5136 8.64H87.7336C87.7336 9.02 87.7436 9.4 87.7636 9.78C87.7836 10.16 87.7936 10.55 87.7936 10.95H87.8536C88.0136 10.61 88.2336 10.28 88.5136 9.96C88.8136 9.64 89.1636 9.36 89.5636 9.12C89.9636 8.86 90.4136 8.66 90.9136 8.52C91.4136 8.36 91.9536 8.28 92.5336 8.28C92.6936 8.28 92.8536 8.29 93.0136 8.31C93.1736 8.33 93.3336 8.37 93.4936 8.43L93.3436 10.8C92.9436 10.68 92.5236 10.62 92.0836 10.62C90.6436 10.62 89.5936 11.09 88.9336 12.03C88.2936 12.95 87.9736 14.22 87.9736 15.84V22.68H85.6336V11.97Z" fill="white"/>
<path d="M96.3905 8.64H98.7305V22.68H96.3905V8.64ZM95.8505 3.15C95.8505 2.69 96.0105 2.29 96.3305 1.95C96.6705 1.61 97.0805 1.44 97.5605 1.44C98.0405 1.44 98.4405 1.61 98.7605 1.95C99.1005 2.29 99.2705 2.69 99.2705 3.15C99.2705 3.65 99.1105 4.06 98.7905 4.38C98.4705 4.7 98.0605 4.86 97.5605 4.86C97.0605 4.86 96.6505 4.7 96.3305 4.38C96.0105 4.06 95.8505 3.65 95.8505 3.15Z" fill="white"/>
<path d="M113.378 12.15C112.878 11.55 112.338 11.12 111.758 10.86C111.178 10.58 110.538 10.44 109.838 10.44C109.058 10.44 108.368 10.58 107.768 10.86C107.168 11.12 106.668 11.49 106.268 11.97C105.888 12.45 105.598 13.01 105.398 13.65C105.198 14.27 105.098 14.94 105.098 15.66C105.098 16.38 105.208 17.06 105.428 17.7C105.668 18.32 105.988 18.87 106.388 19.35C106.808 19.83 107.308 20.21 107.888 20.49C108.468 20.75 109.118 20.88 109.838 20.88C111.378 20.88 112.568 20.3 113.408 19.14L115.148 20.79C114.468 21.57 113.668 22.14 112.748 22.5C111.828 22.86 110.858 23.04 109.838 23.04C108.758 23.04 107.768 22.86 106.868 22.5C105.968 22.14 105.198 21.63 104.558 20.97C103.938 20.31 103.448 19.53 103.088 18.63C102.748 17.73 102.578 16.74 102.578 15.66C102.578 14.6 102.748 13.62 103.088 12.72C103.448 11.82 103.948 11.04 104.588 10.38C105.228 9.72 105.988 9.21 106.868 8.85C107.768 8.47 108.758 8.28 109.838 8.28C110.878 8.28 111.858 8.46 112.778 8.82C113.718 9.18 114.538 9.74 115.238 10.5L113.378 12.15Z" fill="white"/>
<path d="M117.86 0H120.2V14.82L126.59 8.64H129.92L123.14 15.03L130.61 22.68H127.16L120.2 15.3V22.68H117.86V0Z" fill="white"/>
<path d="M133.16 18.99C133.62 19.57 134.12 20.03 134.66 20.37C135.22 20.71 135.92 20.88 136.76 20.88C137.12 20.88 137.48 20.84 137.84 20.76C138.22 20.68 138.56 20.55 138.86 20.37C139.16 20.19 139.4 19.97 139.58 19.71C139.76 19.43 139.85 19.1 139.85 18.72C139.85 18.34 139.76 18.03 139.58 17.79C139.42 17.55 139.2 17.35 138.92 17.19C138.64 17.01 138.32 16.87 137.96 16.77C137.6 16.67 137.23 16.58 136.85 16.5C136.19 16.36 135.56 16.2 134.96 16.02C134.36 15.84 133.83 15.61 133.37 15.33C132.93 15.03 132.57 14.65 132.29 14.19C132.03 13.73 131.9 13.14 131.9 12.42C131.9 11.74 132.05 11.14 132.35 10.62C132.65 10.1 133.05 9.67 133.55 9.33C134.05 8.99 134.61 8.73 135.23 8.55C135.85 8.37 136.49 8.28 137.15 8.28C138.15 8.28 139.07 8.48 139.91 8.88C140.77 9.28 141.44 9.93 141.92 10.83L139.97 12.12C139.67 11.62 139.27 11.22 138.77 10.92C138.29 10.6 137.7 10.44 137 10.44C136.68 10.44 136.35 10.48 136.01 10.56C135.69 10.64 135.4 10.76 135.14 10.92C134.88 11.08 134.66 11.29 134.48 11.55C134.32 11.79 134.24 12.07 134.24 12.39C134.24 12.69 134.33 12.95 134.51 13.17C134.71 13.37 134.97 13.55 135.29 13.71C135.63 13.87 136.01 14.01 136.43 14.13C136.87 14.25 137.32 14.35 137.78 14.43C138.4 14.55 138.99 14.71 139.55 14.91C140.11 15.09 140.6 15.34 141.02 15.66C141.44 15.98 141.77 16.38 142.01 16.86C142.25 17.34 142.37 17.93 142.37 18.63C142.37 19.43 142.21 20.11 141.89 20.67C141.57 21.23 141.14 21.69 140.6 22.05C140.08 22.39 139.48 22.64 138.8 22.8C138.14 22.96 137.46 23.04 136.76 23.04C135.56 23.04 134.52 22.86 133.64 22.5C132.78 22.12 132 21.43 131.3 20.43L133.16 18.99Z" fill="white"/>
</svg>
