<svg width="143" height="24" viewBox="0 0 143 24" fill="none" xmlns="http://www.w3.org/2000/svg">
<path d="M15.05 7.28007C14.59 6.72007 14.02 6.29007 13.34 5.99007C12.68 5.69007 11.91 5.54007 11.03 5.54007C10.15 5.54007 9.33002 5.71007 8.57002 6.05007C7.83002 6.39007 7.18002 6.87007 6.62002 7.49007C6.08002 8.09007 5.65002 8.81007 5.33002 9.65007C5.03002 10.4901 4.88002 11.4001 4.88002 12.3801C4.88002 13.3801 5.03002 14.3001 5.33002 15.1401C5.65002 15.9601 6.08002 16.6801 6.62002 17.3001C7.16002 17.9001 7.79002 18.3701 8.51002 18.7101C9.25002 19.0501 10.04 19.2201 10.88 19.2201C11.84 19.2201 12.69 19.0201 13.43 18.6201C14.17 18.2201 14.78 17.6601 15.26 16.9401L19.16 19.8501C18.26 21.1101 17.12 22.0401 15.74 22.6401C14.36 23.2401 12.94 23.5401 11.48 23.5401C9.82002 23.5401 8.29002 23.2801 6.89002 22.7601C5.49002 22.2401 4.28002 21.5001 3.26002 20.5401C2.24002 19.5601 1.44002 18.3801 0.86002 17.0001C0.30002 15.6201 0.0200195 14.0801 0.0200195 12.3801C0.0200195 10.6801 0.30002 9.14007 0.86002 7.76007C1.44002 6.38007 2.24002 5.21007 3.26002 4.25007C4.28002 3.27007 5.49002 2.52007 6.89002 2.00007C8.29002 1.48007 9.82002 1.22007 11.48 1.22007C12.08 1.22007 12.7 1.28007 13.34 1.40007C14 1.50007 14.64 1.67007 15.26 1.91007C15.9 2.15007 16.51 2.47007 17.09 2.87007C17.67 3.27007 18.19 3.76007 18.65 4.34007L15.05 7.28007Z" fill="#171822"/>
<path d="M35.1671 23.0001H30.8471V21.0201H30.7871C30.6271 21.3001 30.4171 21.5801 30.1571 21.8601C29.9171 22.1401 29.6171 22.3901 29.2571 22.6101C28.8971 22.8301 28.4871 23.0101 28.0271 23.1501C27.5671 23.2901 27.0671 23.3601 26.5271 23.3601C25.3871 23.3601 24.4571 23.1901 23.7371 22.8501C23.0371 22.4901 22.4871 22.0001 22.0871 21.3801C21.7071 20.7601 21.4471 20.0301 21.3071 19.1901C21.1871 18.3501 21.1271 17.4401 21.1271 16.4601V8.42007H25.6271V15.5601C25.6271 15.9801 25.6371 16.4201 25.6571 16.8801C25.6971 17.3201 25.7871 17.7301 25.9271 18.1101C26.0871 18.4901 26.3171 18.8001 26.6171 19.0401C26.9371 19.2801 27.3871 19.4001 27.9671 19.4001C28.5471 19.4001 29.0171 19.3001 29.3771 19.1001C29.7371 18.8801 30.0071 18.6001 30.1871 18.2601C30.3871 17.9001 30.5171 17.5001 30.5771 17.0601C30.6371 16.6201 30.6671 16.1601 30.6671 15.6801V8.42007H35.1671V23.0001Z" fill="#171822"/>
<path d="M38.7737 0.320068H43.2737V9.98007H43.3337C43.8537 9.28007 44.5137 8.79007 45.3137 8.51007C46.1337 8.21007 47.0137 8.06007 47.9537 8.06007C48.9937 8.06007 49.9237 8.28007 50.7437 8.72007C51.5637 9.14007 52.2537 9.71007 52.8137 10.4301C53.3937 11.1501 53.8337 11.9801 54.1337 12.9201C54.4537 13.8401 54.6137 14.8101 54.6137 15.8301C54.6137 16.9301 54.4437 17.9401 54.1037 18.8601C53.7637 19.7801 53.2737 20.5801 52.6337 21.2601C52.0137 21.9201 51.2637 22.4401 50.3837 22.8201C49.5037 23.1801 48.5237 23.3601 47.4437 23.3601C46.9237 23.3601 46.4337 23.2901 45.9737 23.1501C45.5137 23.0101 45.0837 22.8301 44.6837 22.6101C44.3037 22.3901 43.9637 22.1501 43.6637 21.8901C43.3837 21.6101 43.1537 21.3401 42.9737 21.0801H42.9137V23.0001H38.7737V0.320068ZM42.9137 15.7101C42.9137 16.8101 43.2237 17.7001 43.8437 18.3801C44.4837 19.0601 45.3737 19.4001 46.5137 19.4001C47.6537 19.4001 48.5337 19.0601 49.1537 18.3801C49.7937 17.7001 50.1137 16.8101 50.1137 15.7101C50.1137 14.6101 49.7937 13.7201 49.1537 13.0401C48.5337 12.3601 47.6537 12.0201 46.5137 12.0201C45.3737 12.0201 44.4837 12.3601 43.8437 13.0401C43.2237 13.7201 42.9137 14.6101 42.9137 15.7101Z" fill="#171822"/>
<path d="M71.0502 20.4801C70.3302 21.4001 69.4202 22.1101 68.3202 22.6101C67.2202 23.1101 66.0802 23.3601 64.9002 23.3601C63.7802 23.3601 62.7202 23.1801 61.7202 22.8201C60.7402 22.4601 59.8802 21.9501 59.1402 21.2901C58.4202 20.6101 57.8502 19.8001 57.4302 18.8601C57.0102 17.9201 56.8002 16.8701 56.8002 15.7101C56.8002 14.5501 57.0102 13.5001 57.4302 12.5601C57.8502 11.6201 58.4202 10.8201 59.1402 10.1601C59.8802 9.48007 60.7402 8.96007 61.7202 8.60007C62.7202 8.24007 63.7802 8.06007 64.9002 8.06007C65.9402 8.06007 66.8802 8.24007 67.7202 8.60007C68.5802 8.96007 69.3002 9.48007 69.8802 10.1601C70.4802 10.8201 70.9402 11.6201 71.2602 12.5601C71.5802 13.5001 71.7402 14.5501 71.7402 15.7101V17.1201H61.3002C61.4802 17.9801 61.8702 18.6701 62.4702 19.1901C63.0702 19.6901 63.8102 19.9401 64.6902 19.9401C65.4302 19.9401 66.0502 19.7801 66.5502 19.4601C67.0702 19.1201 67.5202 18.6901 67.9002 18.1701L71.0502 20.4801ZM67.2402 14.0601C67.2602 13.3001 67.0102 12.6501 66.4902 12.1101C65.9702 11.5701 65.3002 11.3001 64.4802 11.3001C63.9802 11.3001 63.5402 11.3801 63.1602 11.5401C62.7802 11.7001 62.4502 11.9101 62.1702 12.1701C61.9102 12.4101 61.7002 12.7001 61.5402 13.0401C61.4002 13.3601 61.3202 13.7001 61.3002 14.0601H67.2402Z" fill="#171822"/>
<path d="M82.7867 10.9401H78.6467V17.9601C78.6467 18.4201 78.6567 18.8501 78.6767 19.2501C78.6967 19.6301 78.7767 19.9701 78.9167 20.2701C79.0567 20.5501 79.2667 20.7801 79.5467 20.9601C79.8267 21.1201 80.2267 21.2001 80.7467 21.2001C81.0867 21.2001 81.4367 21.1601 81.7967 21.0801C82.1567 21.0001 82.4967 20.8801 82.8167 20.7201L82.9067 22.8501C82.5067 23.0301 82.0567 23.1601 81.5567 23.2401C81.0767 23.3201 80.6167 23.3601 80.1767 23.3601C79.3367 23.3601 78.6667 23.2501 78.1667 23.0301C77.6667 22.8101 77.2767 22.5001 76.9967 22.1001C76.7167 21.7001 76.5267 21.2101 76.4267 20.6301C76.3467 20.0301 76.3067 19.3701 76.3067 18.6501V10.9401H73.2467V8.96007H76.3067V4.97007H78.6467V8.96007H82.7867V10.9401Z" fill="#171822"/>
<path d="M85.6536 12.2901C85.6536 11.6501 85.6336 11.0501 85.5936 10.4901C85.5536 9.93007 85.5336 9.42007 85.5336 8.96007H87.7536C87.7536 9.34007 87.7636 9.72007 87.7836 10.1001C87.8036 10.4801 87.8136 10.8701 87.8136 11.2701H87.8736C88.0336 10.9301 88.2536 10.6001 88.5336 10.2801C88.8336 9.96007 89.1836 9.68007 89.5836 9.44007C89.9836 9.18007 90.4336 8.98007 90.9336 8.84007C91.4336 8.68007 91.9736 8.60007 92.5536 8.60007C92.7136 8.60007 92.8736 8.61007 93.0336 8.63007C93.1936 8.65007 93.3536 8.69007 93.5136 8.75007L93.3636 11.1201C92.9636 11.0001 92.5436 10.9401 92.1036 10.9401C90.6636 10.9401 89.6136 11.4101 88.9536 12.3501C88.3136 13.2701 87.9936 14.5401 87.9936 16.1601V23.0001H85.6536V12.2901Z" fill="#171822"/>
<path d="M96.4105 8.96007H98.7505V23.0001H96.4105V8.96007ZM95.8705 3.47007C95.8705 3.01007 96.0305 2.61007 96.3505 2.27007C96.6905 1.93007 97.1005 1.76007 97.5805 1.76007C98.0605 1.76007 98.4605 1.93007 98.7805 2.27007C99.1205 2.61007 99.2905 3.01007 99.2905 3.47007C99.2905 3.97007 99.1305 4.38007 98.8105 4.70007C98.4905 5.02007 98.0805 5.18007 97.5805 5.18007C97.0805 5.18007 96.6705 5.02007 96.3505 4.70007C96.0305 4.38007 95.8705 3.97007 95.8705 3.47007Z" fill="#171822"/>
<path d="M113.398 12.4701C112.898 11.8701 112.358 11.4401 111.778 11.1801C111.198 10.9001 110.558 10.7601 109.858 10.7601C109.078 10.7601 108.388 10.9001 107.788 11.1801C107.188 11.4401 106.688 11.8101 106.288 12.2901C105.908 12.7701 105.618 13.3301 105.418 13.9701C105.218 14.5901 105.118 15.2601 105.118 15.9801C105.118 16.7001 105.228 17.3801 105.448 18.0201C105.688 18.6401 106.008 19.1901 106.408 19.6701C106.828 20.1501 107.328 20.5301 107.908 20.8101C108.488 21.0701 109.138 21.2001 109.858 21.2001C111.398 21.2001 112.588 20.6201 113.428 19.4601L115.168 21.1101C114.488 21.8901 113.688 22.4601 112.768 22.8201C111.848 23.1801 110.878 23.3601 109.858 23.3601C108.778 23.3601 107.788 23.1801 106.888 22.8201C105.988 22.4601 105.218 21.9501 104.578 21.2901C103.958 20.6301 103.468 19.8501 103.108 18.9501C102.768 18.0501 102.598 17.0601 102.598 15.9801C102.598 14.9201 102.768 13.9401 103.108 13.0401C103.468 12.1401 103.968 11.3601 104.608 10.7001C105.248 10.0401 106.008 9.53007 106.888 9.17007C107.788 8.79007 108.778 8.60007 109.858 8.60007C110.898 8.60007 111.878 8.78007 112.798 9.14007C113.738 9.50007 114.558 10.0601 115.258 10.8201L113.398 12.4701Z" fill="#171822"/>
<path d="M117.88 0.320068H120.22V15.1401L126.61 8.96007H129.94L123.16 15.3501L130.63 23.0001H127.18L120.22 15.6201V23.0001H117.88V0.320068Z" fill="#171822"/>
<path d="M133.18 19.3101C133.64 19.8901 134.14 20.3501 134.68 20.6901C135.24 21.0301 135.94 21.2001 136.78 21.2001C137.14 21.2001 137.5 21.1601 137.86 21.0801C138.24 21.0001 138.58 20.8701 138.88 20.6901C139.18 20.5101 139.42 20.2901 139.6 20.0301C139.78 19.7501 139.87 19.4201 139.87 19.0401C139.87 18.6601 139.78 18.3501 139.6 18.1101C139.44 17.8701 139.22 17.6701 138.94 17.5101C138.66 17.3301 138.34 17.1901 137.98 17.0901C137.62 16.9901 137.25 16.9001 136.87 16.8201C136.21 16.6801 135.58 16.5201 134.98 16.3401C134.38 16.1601 133.85 15.9301 133.39 15.6501C132.95 15.3501 132.59 14.9701 132.31 14.5101C132.05 14.0501 131.92 13.4601 131.92 12.7401C131.92 12.0601 132.07 11.4601 132.37 10.9401C132.67 10.4201 133.07 9.99007 133.57 9.65007C134.07 9.31007 134.63 9.05007 135.25 8.87007C135.87 8.69007 136.51 8.60007 137.17 8.60007C138.17 8.60007 139.09 8.80007 139.93 9.20007C140.79 9.60007 141.46 10.2501 141.94 11.1501L139.99 12.4401C139.69 11.9401 139.29 11.5401 138.79 11.2401C138.31 10.9201 137.72 10.7601 137.02 10.7601C136.7 10.7601 136.37 10.8001 136.03 10.8801C135.71 10.9601 135.42 11.0801 135.16 11.2401C134.9 11.4001 134.68 11.6101 134.5 11.8701C134.34 12.1101 134.26 12.3901 134.26 12.7101C134.26 13.0101 134.35 13.2701 134.53 13.4901C134.73 13.6901 134.99 13.8701 135.31 14.0301C135.65 14.1901 136.03 14.3301 136.45 14.4501C136.89 14.5701 137.34 14.6701 137.8 14.7501C138.42 14.8701 139.01 15.0301 139.57 15.2301C140.13 15.4101 140.62 15.6601 141.04 15.9801C141.46 16.3001 141.79 16.7001 142.03 17.1801C142.27 17.6601 142.39 18.2501 142.39 18.9501C142.39 19.7501 142.23 20.4301 141.91 20.9901C141.59 21.5501 141.16 22.0101 140.62 22.3701C140.1 22.7101 139.5 22.9601 138.82 23.1201C138.16 23.2801 137.48 23.3601 136.78 23.3601C135.58 23.3601 134.54 23.1801 133.66 22.8201C132.8 22.4401 132.02 21.7501 131.32 20.7501L133.18 19.3101Z" fill="#171822"/>
</svg>
