<svg width="57" height="46" viewBox="0 0 57 46" fill="none" xmlns="http://www.w3.org/2000/svg">
<path d="M56.481 9.69348V2.56348H49.361V5.13348H38.051V2.56348H30.931V5.13348H20.411V2.56348H13.291V9.69348H15.961V12.8235H17.961V9.69348H20.411V7.13348H30.931V9.69348H38.051V7.13348H49.361V9.69348H51.921V20.5435H49.361V27.6735H51.921V38.5235H49.361V41.0835H38.051V38.5235H30.931V41.0835H20.551V38.5235H17.961V31.4635H15.961V38.5235H13.431V45.6435H20.551V43.0835H30.931V45.6435H38.051V43.0835H49.361V45.6435H56.481V38.5235H53.921V27.6735H56.481V20.5435H53.921V9.69348H56.481Z" fill="white"/>
<path d="M30.57 28.4134C30.6071 28.3243 30.6165 28.226 30.5968 28.1315C30.5772 28.0369 30.5295 27.9505 30.46 27.8834L0.81 0.11344C0.737496 0.0521443 0.648441 0.0137269 0.554101 0.0030469C0.459761 -0.00763312 0.364372 0.00990445 0.28 0.053441C0.195848 0.0946732 0.124978 0.158725 0.075471 0.23829C0.0259638 0.317855 -0.000186535 0.409732 1.00164e-06 0.503442L1.48 41.0534C1.48702 41.1481 1.52085 41.2388 1.57751 41.3149C1.63418 41.3911 1.71135 41.4495 1.8 41.4834C1.85291 41.493 1.90709 41.493 1.96 41.4834C2.02891 41.4839 2.09703 41.4688 2.15934 41.4394C2.22166 41.41 2.27656 41.3669 2.32 41.3134L13.32 28.5934L30.15 28.6534C30.2358 28.6588 30.3213 28.639 30.3959 28.5963C30.4706 28.5537 30.5311 28.4901 30.57 28.4134Z" fill="white"/>
</svg>
