<svg width="70" height="70" viewBox="0 0 70 70" fill="none" xmlns="http://www.w3.org/2000/svg">
<path d="M17.4984 21V17.5H20.9984V21H17.4984Z" fill="white" stroke="#171822"/>
<path d="M26.5016 21V17.5H30.0016V21H26.5016Z" fill="white" stroke="#171822"/>
<path d="M26.5794 44.3536L31.3851 49.1593L28.9107 51.6337L21.2771 44L28.9107 36.3664L31.3851 38.8408L26.5794 43.6465L26.2259 44L26.5794 44.3536Z" fill="white" stroke="#171822"/>
<path d="M43.4228 43.6465L38.6171 38.8408L41.0915 36.3664L48.7251 44L41.0915 51.6337L38.6171 49.1593L43.4228 44.3536L43.7763 44L43.4228 43.6465Z" fill="white" stroke="#171822"/>
<path d="M12 57.5V58H12.5H57.5H58V57.5V30.5V30H57.5H12.5H12V30.5V57.5ZM58 12.5V12H57.5H12.5H12V12.5V26V26.5H12.5H57.5H58V26V12.5ZM61.5 8.5V61.5H8.5V8.5H61.5Z" fill="white" stroke="#171822"/>
</svg>
