<svg width="70" height="70" viewBox="0 0 70 70" fill="none" xmlns="http://www.w3.org/2000/svg">
<rect width="70" height="70" fill="#171822"/>
<path d="M10.6218 13H55.023C55.7049 13 56.2353 13.5304 56.2353 14.2123V20.577C56.2353 21.2589 55.7049 21.7893 55.023 21.7893C54.341 21.7893 53.8107 21.2589 53.8107 20.577V15.5004H11.9099V42.7018H42.9756C43.6575 42.7018 44.1879 43.2322 44.1879 43.9141C44.1879 44.5961 43.6575 45.1264 42.9756 45.1264H11.4553L7.06063 53.9157H27.1397L27.9731 52.2488C28.2004 51.7942 28.5793 51.5669 29.1097 51.5669H36.6867C37.1413 51.5669 37.5959 51.87 37.8232 52.2488L38.6567 53.9157H43.1271C43.809 53.9157 44.3394 54.4461 44.3394 55.1281C44.3394 55.81 43.809 56.3404 43.1271 56.3404H5.24216C4.78754 56.3404 4.4087 56.1131 4.18139 55.7342C3.95408 55.3554 3.95407 54.9008 4.10561 54.5219L9.56104 43.5353V14.2123C9.4095 13.5304 9.9399 13 10.6218 13ZM66.54 25.6536V55.1281C66.54 55.81 66.0096 56.3404 65.3277 56.3404H48.2037C47.5218 56.3404 46.9914 55.81 46.9914 55.1281V25.6536C46.9914 24.9717 47.5218 24.4413 48.2037 24.4413H65.3277C65.9338 24.4413 66.54 24.9717 66.54 25.6536ZM64.0396 26.8659H49.3402V53.84H64.0396V26.8659ZM58.4326 50.4303H55.023V52.4003H58.4326V50.4303Z" fill="white"/>
</svg>
